<svg width="40" height="40" viewBox="0 0 40 40" fill="none" xmlns="http://www.w3.org/2000/svg">
<path d="M31.7 8.29204C29.3849 5.97803 26.4357 4.40247 23.2252 3.76458C20.0147 3.1267 16.6872 3.45514 13.6634 4.70837C10.6396 5.9616 8.0553 8.08334 6.23732 10.8053C4.41935 13.5272 3.44934 16.7271 3.44995 20.0004C3.44995 24.3905 5.19334 28.6009 8.29683 31.7059C11.4003 34.811 15.6099 36.5565 20 36.5587C22.1724 36.5588 24.3238 36.1341 26.3333 35.3087C28.3359 34.4629 30.1577 33.2408 31.7 31.7087C33.2377 30.1712 34.4575 28.3459 35.2897 26.337C36.1219 24.3281 36.5503 22.1749 36.5503 20.0004C36.5503 17.8259 36.1219 15.6727 35.2897 13.6638C34.4575 11.6548 33.2377 9.8295 31.7 8.29204ZM30.5333 30.5254C28.1501 32.9189 25.0229 34.4296 21.6666 34.8087V23.8754H24.8C25.242 23.8754 25.6659 23.6998 25.9785 23.3872C26.291 23.0747 26.4666 22.6507 26.4666 22.2087C26.4666 21.7667 26.291 21.3428 25.9785 21.0302C25.6659 20.7176 25.242 20.542 24.8 20.542H21.6666V15.9754C21.6666 15.5333 21.8422 15.1094 22.1548 14.7969C22.4673 14.4843 22.8913 14.3087 23.3333 14.3087H25.3333C25.7753 14.3087 26.1992 14.1331 26.5118 13.8205C26.8244 13.508 27 13.0841 27 12.642C27 12.2 26.8244 11.7761 26.5118 11.4635C26.1992 11.151 25.7753 10.9754 25.3333 10.9754H22.5C21.3949 10.9754 20.3351 11.4144 19.5537 12.1958C18.7723 12.9772 18.3333 14.037 18.3333 15.142V20.542H15.2166C14.7746 20.542 14.3507 20.7176 14.0381 21.0302C13.7255 21.3428 13.55 21.7667 13.55 22.2087C13.55 22.6507 13.7255 23.0747 14.0381 23.3872C14.3507 23.6998 14.7746 23.8754 15.2166 23.8754H18.3333V34.8087C15.2381 34.4556 12.3321 33.139 10.0257 31.0448C7.71932 28.9507 6.12914 26.1849 5.47978 23.138C4.83043 20.0912 5.15471 16.9173 6.40684 14.0648C7.65896 11.2123 9.77563 8.82517 12.4579 7.24074C15.1401 5.65631 18.2523 4.9546 21.355 5.23474C24.4576 5.51487 27.3938 6.76269 29.7489 8.80195C32.104 10.8412 33.7588 13.5688 34.4797 16.5995C35.2007 19.6302 34.9512 22.8108 33.7666 25.692C33.0107 27.4966 31.9127 29.1379 30.5333 30.5254Z" fill="#797878"/>
</svg>
