<svg width="40" height="40" viewBox="0 0 40 40" fill="none" xmlns="http://www.w3.org/2000/svg">
<path d="M11.6666 16.667V28.3337M18.3333 21.667V28.3337M18.3333 21.667C18.3333 21.0104 18.4626 20.3602 18.7139 19.7536C18.9652 19.1469 19.3335 18.5958 19.7978 18.1315C20.2621 17.6672 20.8132 17.2989 21.4199 17.0476C22.0265 16.7963 22.6767 16.667 23.3333 16.667C23.9899 16.667 24.6401 16.7963 25.2467 17.0476C25.8533 17.2989 26.4045 17.6672 26.8688 18.1315C27.3331 18.5958 27.7014 19.1469 27.9527 19.7536C28.204 20.3602 28.3333 21.0104 28.3333 21.667V28.3337M18.3333 21.667V16.667" stroke="#797878" stroke-width="2" stroke-linecap="round" stroke-linejoin="round"/>
<path d="M11.6799 11.667H11.6649" stroke="#797878" stroke-width="2" stroke-linecap="round" stroke-linejoin="round"/>
<path d="M4.16663 20.0003C4.16663 12.537 4.16663 8.80366 6.48496 6.48533C8.80329 4.16699 12.535 4.16699 20 4.16699C27.4633 4.16699 31.1966 4.16699 33.515 6.48533C35.8333 8.80366 35.8333 12.5353 35.8333 20.0003C35.8333 27.4637 35.8333 31.197 33.515 33.5153C31.1966 35.8337 27.465 35.8337 20 35.8337C12.5366 35.8337 8.80329 35.8337 6.48496 33.5153C4.16663 31.197 4.16663 27.4653 4.16663 20.0003Z" stroke="#797878" stroke-width="2" stroke-linejoin="round"/>
</svg>
